<svg width="29" height="29" viewBox="0 0 29 29" fill="none" xmlns="http://www.w3.org/2000/svg">
<path d="M11.7152 4.18164H16.3818C18.8572 4.18164 21.2312 5.16497 22.9815 6.91531C24.7318 8.66565 25.7152 11.0396 25.7152 13.515C25.7152 15.9903 24.7318 18.3643 22.9815 20.1146C21.2312 21.865 18.8572 22.8483 16.3818 22.8483V26.9316C10.5485 24.5983 2.38184 21.0983 2.38184 13.515C2.38184 11.0396 3.36517 8.66565 5.11551 6.91531C6.86585 5.16497 9.23982 4.18164 11.7152 4.18164ZM14.0485 20.515H16.3818C17.3011 20.515 18.2113 20.3339 19.0606 19.9821C19.9099 19.6303 20.6816 19.1147 21.3316 18.4647C21.9816 17.8147 22.4972 17.043 22.849 16.1938C23.2008 15.3445 23.3818 14.4342 23.3818 13.515C23.3818 12.5957 23.2008 11.6855 22.849 10.8362C22.4972 9.98691 21.9816 9.21524 21.3316 8.56523C20.6816 7.91522 19.9099 7.3996 19.0606 7.04782C18.2113 6.69603 17.3011 6.51497 16.3818 6.51497H11.7152C9.85865 6.51497 8.07818 7.25247 6.76542 8.56523C5.45267 9.87798 4.71517 11.6585 4.71517 13.515C4.71517 17.7266 7.5875 20.4753 14.0485 23.4083V20.515Z" fill="#747C90"/>
</svg>
