<svg width="28" height="28" viewBox="0 0 28 28" fill="none" xmlns="http://www.w3.org/2000/svg">
<path d="M14.6233 23.1766L23.4827 14.3172C25.6593 12.1297 25.9765 8.55315 23.9202 6.26722C23.4045 5.69115 22.7768 5.22627 22.0754 4.901C21.374 4.57572 20.6136 4.39686 19.8407 4.37537C19.0679 4.35387 18.2987 4.49018 17.5803 4.77597C16.8619 5.06175 16.2093 5.49102 15.6624 6.03753L13.9999 7.71097L12.5671 6.26722C10.3796 4.09065 6.80303 3.77347 4.51709 5.82972C3.94103 6.3454 3.47615 6.97313 3.15087 7.67454C2.82559 8.37596 2.64674 9.13633 2.62525 9.9092C2.60375 10.6821 2.74006 11.4512 3.02584 12.1696C3.31163 12.888 3.7409 13.5406 4.28741 14.0875L13.3765 23.1766C13.5424 23.3409 13.7664 23.4331 13.9999 23.4331C14.2334 23.4331 14.4574 23.3409 14.6233 23.1766V23.1766Z" stroke="#8247E5" stroke-width="2" stroke-linecap="round" stroke-linejoin="round"/>
</svg>
