<svg width="69" height="52" viewBox="0 0 69 52" fill="none" xmlns="http://www.w3.org/2000/svg">
<path d="M23.1808 38.0467C16.6398 31.5057 16.6398 20.9006 23.1808 14.3595L34.4438 3.09657L45.7067 14.3595C52.2477 20.9006 52.2477 31.5057 45.7067 38.0467L34.4438 49.3097L23.1808 38.0467Z" stroke="#FF9776" stroke-width="3.19758"/>
<path d="M34.7238 34.106C34.7238 24.8556 42.2228 17.3566 51.4732 17.3566H67.4014V33.2848C67.4014 42.5352 59.9024 50.0342 50.652 50.0342H34.7238V34.106Z" stroke="#FF9776" stroke-width="3.19758"/>
<path d="M17.9376 17.3019C26.9613 17.3019 34.2764 24.617 34.2764 33.6407V49.9795H17.9376C8.91392 49.9795 1.59879 42.6644 1.59879 33.6407V17.3019H17.9376Z" stroke="#FF9776" stroke-width="3.19758"/>
</svg>
