<svg width="185" height="181" viewBox="0 0 185 181" fill="none" xmlns="http://www.w3.org/2000/svg">
<path d="M81.1531 8.14891C85.0019 -1.87776 99.1875 -1.87776 103.036 8.14891L121.295 55.7142C122.52 58.9063 125.078 61.4042 128.298 62.5529L176.407 79.7136C186.783 83.415 186.783 98.0897 176.407 101.791L128.298 118.952C125.078 120.101 122.52 122.598 121.295 125.79L103.036 173.356C99.1875 183.382 85.0019 183.382 81.1531 173.356L62.8948 125.79C61.6695 122.598 59.1113 120.101 55.8909 118.952L7.78238 101.791C-2.59415 98.0897 -2.59412 83.415 7.78241 79.7136L55.8909 62.5529C59.1113 61.4042 61.6695 58.9063 62.8948 55.7142L81.1531 8.14891Z" fill="#4F0AC5"/>
<path d="M24.7147 42.799C20.0885 33.1004 30.4751 23.0879 40.5361 27.5475L87.7637 48.4816C90.9268 49.8837 94.5675 49.8837 97.7306 48.4816L144.958 27.5475C155.019 23.0879 165.406 33.1004 160.78 42.799L139.063 88.326C137.609 91.3752 137.609 94.8847 139.063 97.9339L160.78 143.461C165.406 153.16 155.019 163.172 144.958 158.712L97.7306 137.778C94.5675 136.376 90.9268 136.376 87.7637 137.778L40.536 158.712C30.4751 163.172 20.0885 153.159 24.7147 143.461L46.4309 97.9339C47.8853 94.8847 47.8853 91.3752 46.4309 88.326L24.7147 42.799Z" fill="#7329F0"/>
<line y1="-2" x2="8.77936" y2="-2" transform="matrix(0.643086 0.765794 -0.78836 0.615214 58.8721 85.3164)" stroke="#220D6D" stroke-width="4"/>
<line y1="-2" x2="8.77936" y2="-2" transform="matrix(-0.643086 0.765794 0.78836 0.615214 126.623 85.3164)" stroke="#220D6D" stroke-width="4"/>
<path d="M116.982 76.9336L112.914 84.6433" stroke="#220D6D" stroke-width="4"/>
<line y1="-2" x2="8.71742" y2="-2" transform="matrix(0.466724 0.884403 -0.897847 0.440308 69.4995 77.6348)" stroke="#220D6D" stroke-width="4"/>
<line y1="-2" x2="8.66208" y2="-2" transform="matrix(0.198457 0.98011 -0.982754 0.184918 80.4717 73.0762)" stroke="#220D6D" stroke-width="4"/>
<line y1="-2" x2="8.66208" y2="-2" transform="matrix(-0.198457 0.98011 0.982754 0.184918 104.762 73.0762)" stroke="#220D6D" stroke-width="4"/>
<line y1="-2" x2="8.65001" y2="-2" transform="matrix(-4.53443e-08 1 1 4.21373e-08 93.7437 71.2285)" stroke="#220D6D" stroke-width="4"/>
<path fill-rule="evenodd" clip-rule="evenodd" d="M63.8535 91.3744C70.3699 82.8102 80.885 77.25 92.7472 77.25C104.609 77.25 115.125 82.8102 121.641 91.3744C115.125 99.9387 104.609 105.499 92.7472 105.499C80.885 105.499 70.3699 99.9387 63.8535 91.3744Z" fill="#F9F8FF"/>
<path d="M89.6698 86.465C90.7573 83.6319 94.7976 83.6319 95.8851 86.465C96.2195 87.3361 96.9203 88.0248 97.7991 88.3383C100.631 89.3484 100.631 93.3529 97.7991 94.3629C96.9203 94.6764 96.2195 95.3651 95.8851 96.2362C94.7976 99.0694 90.7573 99.0694 89.6698 96.2362C89.3354 95.3651 88.6346 94.6764 87.7558 94.3629C84.9242 93.3529 84.9242 89.3484 87.7558 88.3383C88.6346 88.0248 89.3354 87.3361 89.6698 86.465Z" fill="#4F0AC5"/>
<ellipse cx="92.7475" cy="91.3754" rx="1.88469" ry="1.81682" fill="#F9F8FF"/>
</svg>
