<svg width="29" height="29" viewBox="0 0 29 29" fill="none" xmlns="http://www.w3.org/2000/svg">
<path d="M19.3203 11.5859H24.5703V6.33594" stroke="#747C90" stroke-width="2" stroke-linecap="round" stroke-linejoin="round"/>
<path d="M7.24609 7.87945C8.13902 6.98521 9.19949 6.27579 10.3668 5.79176C11.5342 5.30773 12.7855 5.05859 14.0492 5.05859C15.3129 5.05859 16.5643 5.30773 17.7316 5.79176C18.8989 6.27579 19.9594 6.98521 20.8523 7.87945L24.5711 11.5873" stroke="#747C90" stroke-width="2" stroke-linecap="round" stroke-linejoin="round"/>
<path d="M8.77734 17.7773H3.52734V23.0273" stroke="#747C90" stroke-width="2" stroke-linecap="round" stroke-linejoin="round"/>
<path d="M20.8523 21.4852C19.9594 22.3794 18.8989 23.0888 17.7316 23.5728C16.5643 24.0569 15.3129 24.306 14.0492 24.306C12.7855 24.306 11.5342 24.0569 10.3668 23.5728C9.19949 23.0888 8.13903 22.3794 7.24609 21.4852L3.52734 17.7773" stroke="#747C90" stroke-width="2" stroke-linecap="round" stroke-linejoin="round"/>
</svg>
