<svg width="24" height="24" viewBox="0 0 24 24" fill="none" xmlns="http://www.w3.org/2000/svg">
<path d="M5.33356 4.54409C6.36029 3.62437 7.56625 2.92709 8.87556 2.49609C9.24994 2.96512 9.72522 3.34372 10.2661 3.60376C10.8069 3.8638 11.3994 3.99858 11.9996 3.99809C12.5997 3.99858 13.1922 3.8638 13.733 3.60376C14.2739 3.34372 14.7492 2.96512 15.1236 2.49609C16.4329 2.92709 17.6388 3.62437 18.6656 4.54409C18.4471 5.10254 18.3572 5.70303 18.4025 6.30098C18.4479 6.89894 18.6273 7.47899 18.9276 7.99809C19.2272 8.51818 19.6402 8.96404 20.1358 9.30252C20.6315 9.64099 21.1971 9.86336 21.7906 9.95309C22.0711 11.302 22.0711 12.6942 21.7906 14.0431C20.6306 14.2211 19.5606 14.9031 18.9276 15.9981C18.6272 16.5173 18.4476 17.0976 18.4023 17.6957C18.3569 18.2938 18.4469 18.8945 18.6656 19.4531C17.6387 20.3725 16.4328 21.0694 15.1236 21.5001C14.7491 21.0313 14.2738 20.6528 13.7329 20.393C13.1921 20.1331 12.5996 19.9985 11.9996 19.9991C11.3994 19.9986 10.8069 20.1334 10.2661 20.3934C9.72522 20.6535 9.24994 21.0321 8.87556 21.5011C7.56633 21.0704 6.36038 20.3735 5.33356 19.4541C5.55221 18.8955 5.6422 18.2948 5.59684 17.6967C5.55148 17.0986 5.37194 16.5183 5.07156 15.9991C4.77185 15.4792 4.35881 15.0335 3.86314 14.6952C3.36748 14.3569 2.80194 14.1347 2.20856 14.0451C1.92788 12.6959 1.92788 11.3033 2.20856 9.95409C2.80203 9.86436 3.36763 9.64198 3.8633 9.30351C4.35897 8.96504 4.77196 8.51919 5.07156 7.99909C5.37179 7.47999 5.55124 6.89994 5.5966 6.30198C5.64196 5.70403 5.55205 5.10354 5.33356 4.54509V4.54409ZM13.4996 14.5961C13.8435 14.4005 14.1454 14.1389 14.3878 13.8262C14.6302 13.5135 14.8083 13.156 14.912 12.7742C15.0157 12.3924 15.0428 11.9938 14.9918 11.6015C14.9408 11.2091 14.8127 10.8307 14.6149 10.4881C14.417 10.1455 14.1534 9.84536 13.8391 9.60504C13.5248 9.36471 13.1661 9.18892 12.7836 9.0878C12.4011 8.98667 12.0024 8.9622 11.6104 9.0158C11.2184 9.0694 10.8409 9.2 10.4996 9.40009C9.81614 9.80075 9.31894 10.4555 9.11645 11.2213C8.91396 11.9872 9.02263 12.8021 9.41874 13.4882C9.81485 14.1742 10.4662 14.6758 11.2308 14.8833C11.9953 15.0909 12.8109 14.9876 13.4996 14.5961Z" fill="#8247E5"/>
</svg>
